<svg xmlns="http://www.w3.org/2000/svg" viewBox="0 0 32 32" aria-labelledby="title desc" role="img">
  <title id="title">Minecraft Torch Favicon</title>
  <desc id="desc">Pixelated Minecraft torch with a bright flame</desc>
  <rect width="32" height="32" fill="#1d1d1d" rx="6" ry="6" />
  <g transform="translate(9 4)">
    <rect x="4" y="12" width="6" height="12" fill="#7c4f24" />
    <rect x="3" y="14" width="8" height="2" fill="#5e3b1a" />
    <rect x="3" y="18" width="8" height="2" fill="#5e3b1a" />
    <rect x="3" y="22" width="8" height="2" fill="#5e3b1a" />
    <rect x="5" y="24" width="4" height="3" fill="#3a2715" />
    <rect x="1" y="8" width="12" height="4" fill="#525252" />
    <rect x="0" y="6" width="14" height="3" fill="#6f6f6f" />
    <rect x="2" y="4" width="10" height="2" fill="#8a8a8a" />
    <rect x="4" y="0" width="6" height="6" fill="#f4b400" />
    <rect x="2" y="2" width="4" height="4" fill="#f7941d" />
    <rect x="8" y="2" width="4" height="4" fill="#f7941d" />
    <rect x="5" y="1" width="2" height="2" fill="#ffe06a" />
    <rect x="6" y="3" width="2" height="2" fill="#ffd24d" />
    <rect x="4" y="4" width="2" height="2" fill="#ffeab6" />
    <rect x="8" y="4" width="2" height="2" fill="#ffeab6" />
  </g>
</svg>
